<?xml version="1.0" encoding="UTF-8"?>
<svg width="25px" height="26px" viewBox="0 0 25 26" version="1.1" xmlns="http://www.w3.org/2000/svg" xmlns:xlink="http://www.w3.org/1999/xlink">
    <!-- Generator: Sketch 58 (84663) - https://sketch.com -->
    <title>logo备份</title>
    <desc>Created with Sketch.</desc>
    <defs>
        <linearGradient x1="77.1845858%" y1="73.5649298%" x2="44.5242511%" y2="20.3913005%" id="linearGradient-1">
            <stop stop-color="#3DD3FF" offset="0%"></stop>
            <stop stop-color="#0365FE" offset="100%"></stop>
        </linearGradient>
    </defs>
    <g id="Symbol" stroke="none" stroke-width="1" fill="none" fill-rule="evenodd">
        <g id="logo备份">
            <rect id="矩形" x="0" y="0.866666667" width="24.2666667" height="24.2666667"></rect>
            <path d="M23.7092477,8.53315615 C24.1127767,8.57985995 24.4107842,8.76872142 24.4105416,9.21722228 C24.4100565,9.85915869 24.4230344,10.5055488 24.3475926,11.140263 C24.328065,11.3043281 24.0110151,11.5402545 23.8134351,11.5584305 C22.9735076,11.6359491 22.3740965,11.6460603 21.5301664,11.6768751 C20.400843,11.7181623 19.6863285,12.4207655 19.7088883,13.5248046 C19.7460028,15.3537155 19.8127118,15.8827443 19.8629255,17.7115348 C19.9238127,19.9400761 19.9583801,19.7034275 20.0064106,21.9325707 C20.03176,23.1156933 19.5969384,25.3431513 18.5054571,25.8974579 C18.0194514,26.1440973 17.6851785,25.9345321 17.648913,25.3900958 C17.6387247,25.2381881 17.6463659,25.0851971 17.6464872,24.9328079 C17.6517027,20.320688 17.6597078,18.1767672 17.6605568,13.564888 C17.6609206,12.2703022 16.8433104,11.5651712 15.5496401,11.7114215 C15.0158464,11.7718475 14.4803548,11.8186717 13.9449844,11.8630885 C12.8931647,11.9503571 11.8407386,12.0334129 10.7884337,12.1175519 C10.6045593,12.1322371 10.4577995,11.9719035 10.4880005,11.7913476 C10.5638062,11.3375504 10.7031674,10.6338639 11.4264148,9.91609399 C12.4752022,8.87512903 14.0884695,9.80210303 15.8869453,9.21926858 C18.5237718,8.36463731 20.9728427,8.21585925 23.7092477,8.53315615 Z M14.6258654,25.3069799 C14.6812945,25.3069799 14.7261715,25.3515171 14.7261715,25.4065264 C14.7261715,25.4615358 14.6812945,25.5060729 14.6258654,25.5060729 L13.8789667,25.5060729 C13.8235375,25.5060729 13.7786605,25.4615358 13.7786605,25.4065264 C13.7786605,25.3515171 13.8235375,25.3069799 13.8789667,25.3069799 L14.6258654,25.3069799 Z M15.1396827,25.3069799 C15.1951118,25.3069799 15.2399888,25.3515171 15.2399888,25.4065264 C15.2399888,25.4615358 15.1951118,25.5060729 15.1396827,25.5060729 L15.106692,25.5060729 C15.0512629,25.5060729 15.0062646,25.4615358 15.0062646,25.4065264 C15.0062646,25.3515171 15.0512629,25.3069799 15.106692,25.3069799 L15.1396827,25.3069799 Z M18.5891103,-1.42108547e-14 C18.6999686,-1.42108547e-14 18.7898438,0.0890742446 18.7898438,0.199092974 C18.7898438,0.309111703 18.6999686,0.398306318 18.5891103,0.398306318 C18.5144185,0.398306318 18.449252,0.357816333 18.4146817,0.29774772 L18.4151695,0.298627424 L13.377909,0.298627424 C6.43058665,0.298627424 0.778390064,5.90801779 0.778390064,12.8028458 C0.778390064,19.6975535 6.43058665,25.3069438 13.377909,25.3069438 C13.4334594,25.3069438 13.4783364,25.351481 13.4783364,25.4064903 C13.4783364,25.4614997 13.4334594,25.5060368 13.377909,25.5060368 C6.31997092,25.5060368 0.577777778,19.8075722 0.577777778,12.8028458 C0.577777778,5.90124872 6.15232471,0.267425849 13.0673971,0.103217736 L13.377909,0.0995344499 L18.4151695,0.0995344499 C18.4492806,0.0404176103 18.5144349,-1.42108547e-14 18.5891103,-1.42108547e-14 Z M15.6152454,24.6330731 C15.6707958,24.6330731 15.7156728,24.6774898 15.7156728,24.7326196 C15.7156728,24.7876289 15.6707958,24.8321661 15.6152454,24.8321661 L15.5411377,24.8321661 C15.4855873,24.8321661 15.4407103,24.7876289 15.4407103,24.7326196 C15.4407103,24.6774898 15.4855873,24.6330731 15.5411377,24.6330731 L15.6152454,24.6330731 Z M15.6150392,0.673906846 C15.7258975,0.673906846 15.8157728,0.763101461 15.8157728,0.87312019 C15.8157728,0.983018549 15.7258975,1.07221316 15.6150392,1.07221316 C15.5407405,1.07221316 15.4758672,1.03214827 15.441159,0.972637625 L13.3556888,0.972750937 C6.78266485,0.972750937 1.43514666,6.27964999 1.43514666,12.802894 C1.43514666,19.2255433 6.61939151,24.4694526 13.0532037,24.6292835 L13.3556888,24.633037 L13.5308304,24.633037 C13.5863808,24.633037 13.6312578,24.6774537 13.6312578,24.7325835 C13.6312578,24.7738405 13.6060145,24.8092069 13.5699575,24.8243115 L13.5308304,24.83213 L13.3556888,24.83213 C6.67204913,24.83213 1.23453437,19.4357956 1.23453437,12.802894 C1.23453437,6.27025379 6.50852423,0.937226439 13.0527598,0.777119237 L13.3556888,0.773417222 L15.4411705,0.773498932 C15.4758815,0.713962911 15.5407487,0.673906846 15.6150392,0.673906846 Z M14.7129267,24.6330731 C14.7684772,24.6330731 14.8132329,24.6774898 14.8132329,24.7326196 C14.8132329,24.7876289 14.7684772,24.8321661 14.7129267,24.8321661 L13.9360696,24.8321661 C13.8806405,24.8321661 13.8357635,24.7876289 13.8357635,24.7326196 C13.8357635,24.6774898 13.8806405,24.6330731 13.9360696,24.6330731 L14.7129267,24.6330731 Z M16.4605217,1.34782573 C16.57138,1.34782573 16.661134,1.43702034 16.661134,1.54703907 C16.661134,1.6570578 16.57138,1.74613205 16.4605217,1.74613205 C16.3862313,1.74613205 16.3213095,1.70613004 16.2865626,1.64662968 L13.3333959,1.64663371 C7.13491285,1.64663371 2.09195177,6.65128218 2.09195177,12.8028217 C2.09195177,18.8567178 6.97608944,23.7998431 13.039119,23.9552424 L13.3333959,23.9590098 L13.9440868,23.9590098 C13.9996373,23.9590098 14.044393,24.0035469 14.044393,24.0585563 C14.044393,24.0999036 14.0192179,24.1352925 13.983195,24.1504028 L13.9440868,24.1582231 L13.3333959,24.1582231 C7.02417584,24.1582231 1.89133948,19.0642597 1.89133948,12.8028217 C1.89133948,6.63933728 6.86502784,1.60689545 13.0385279,1.4511364 L13.3333959,1.44742036 L16.2865626,1.44741782 C16.3213095,1.38788179 16.3862313,1.34782573 16.4605217,1.34782573 Z M14.9424665,23.9590338 C14.9980169,23.9590338 15.0427726,24.003571 15.0427726,24.0585803 C15.0427726,24.1137101 14.9980169,24.1582472 14.9424665,24.1582472 L14.3071538,24.1582472 C14.2517247,24.1582472 14.2068477,24.1137101 14.2068477,24.0585803 C14.2068477,24.003571 14.2517247,23.9590338 14.3071538,23.9590338 L14.9424665,23.9590338 Z M15.5194269,23.9590338 C15.5749774,23.9590338 15.6197331,24.003571 15.6197331,24.0585803 C15.6197331,24.1137101 15.5749774,24.1582472 15.5194269,24.1582472 L15.284975,24.1582472 C15.2295458,24.1582472 15.1846688,24.1137101 15.1846688,24.0585803 C15.1846688,24.003571 15.2295458,23.9590338 15.284975,23.9590338 L15.5194269,23.9590338 Z M16.8280158,23.9590338 C16.8834449,23.9590338 16.9283219,24.003571 16.9283219,24.0585803 C16.9283219,24.1137101 16.8834449,24.1582472 16.8280158,24.1582472 L16.6726444,24.1582472 C16.6172152,24.1582472 16.5723382,24.1137101 16.5723382,24.0585803 C16.5723382,24.003571 16.6172152,23.9590338 16.6726444,23.9590338 L16.8280158,23.9590338 Z M16.2009629,23.9590338 C16.2563921,23.9590338 16.3012691,24.003571 16.3012691,24.0585803 C16.3012691,24.1137101 16.2563921,24.1582472 16.2009629,24.1582472 L16.1495363,24.1582472 C16.0941072,24.1582472 16.0492302,24.1137101 16.0492302,24.0585803 C16.0492302,24.003571 16.0941072,23.9590338 16.1495363,23.9590338 L16.2009629,23.9590338 Z M16.6449055,23.285127 C16.7003347,23.285127 16.7452117,23.3296641 16.7452117,23.3846735 C16.7452117,23.4396828 16.7003347,23.48422 16.6449055,23.48422 L16.5644908,23.48422 C16.5089404,23.48422 16.4640634,23.4396828 16.4640634,23.3846735 C16.4640634,23.3296641 16.5089404,23.285127 16.5644908,23.285127 L16.6449055,23.285127 Z M15.9914359,23.285127 C16.046865,23.285127 16.091742,23.3296641 16.091742,23.3846735 C16.091742,23.4396828 16.046865,23.48422 15.9914359,23.48422 L15.514163,23.48422 C15.4586126,23.48422 15.4137356,23.4396828 15.4137356,23.3846735 C15.4137356,23.3296641 15.4586126,23.285127 15.514163,23.285127 L15.9914359,23.285127 Z M17.4024049,2.02185295 C17.5132632,2.02185295 17.6031385,2.11092719 17.6031385,2.22094592 C17.6031385,2.33096465 17.5132632,2.42015926 17.4024049,2.42015926 C17.3281145,2.42015926 17.2632472,2.3801032 17.2285362,2.32056718 L13.3111514,2.32050444 C7.48708809,2.32050444 2.74880539,7.02278197 2.74880539,12.8028578 C2.74880539,18.48806 7.33300795,23.1306282 13.0256136,23.2813157 L13.3111514,23.2850909 L15.1271293,23.285127 C15.1825584,23.285127 15.2274354,23.3296641 15.2274354,23.3846735 C15.2274354,23.4396828 15.1825584,23.48422 15.1271293,23.48422 L13.3111514,23.4841839 C7.37635107,23.4841839 2.54807182,18.6925913 2.54807182,12.8028578 C2.54807182,7.00800162 7.22185619,2.27626468 13.0248629,2.12513551 L13.3111514,2.12141147 L17.2285247,2.12137499 C17.2632329,2.06186377 17.3281063,2.02185295 17.4024049,2.02185295 Z M16.7490202,22.6112201 C16.8044493,22.6112201 16.8493263,22.6557573 16.8493263,22.7107666 C16.8493263,22.765776 16.8044493,22.8103131 16.7490202,22.8103131 L16.7081457,22.8103131 C16.6527166,22.8103131 16.6078396,22.765776 16.6078396,22.7107666 C16.6078396,22.6557573 16.6527166,22.6112201 16.7081457,22.6112201 L16.7490202,22.6112201 Z M18.5618687,2.69575979 C18.672727,2.69575979 18.7626023,2.78495441 18.7626023,2.89485277 C18.7626023,3.00487149 18.672727,3.09406611 18.5618687,3.09406611 C18.4875783,3.09406611 18.422711,3.05401005 18.388,2.99447402 L13.2888827,2.99445944 C7.83923906,2.99445944 3.40551347,7.39448638 3.40551347,12.8028578 C3.40551347,18.1194437 7.69021697,22.4616928 13.0126744,22.6073604 L13.2888827,22.6111359 L13.8806526,22.6111359 C13.9360817,22.6111359 13.9809587,22.655673 13.9809587,22.7108027 C13.9809587,22.7520598 13.9557154,22.7874262 13.9197096,22.8025308 L13.8806526,22.8103492 L13.2888827,22.8103492 C7.72850205,22.8103492 3.20490119,18.3210073 3.20490119,12.8028578 C3.20490119,7.37655919 7.57897191,2.94517664 13.0117438,2.79897119 L13.2888827,2.79524609 L18.3879886,2.79533533 C18.4226967,2.73582469 18.4875701,2.69575979 18.5618687,2.69575979 Z M14.8440403,22.6112201 C14.8995908,22.6112201 14.9443465,22.6557573 14.9443465,22.7107666 C14.9443465,22.765776 14.8995908,22.8103131 14.8440403,22.8103131 L14.2641568,22.8103131 C14.2087277,22.8103131 14.1638507,22.765776 14.1638507,22.7107666 C14.1638507,22.6557573 14.2087277,22.6112201 14.2641568,22.6112201 L14.8440403,22.6112201 Z M15.4739435,22.6112201 C15.5293727,22.6112201 15.5742496,22.6557573 15.5742496,22.7107666 C15.5742496,22.765776 15.5293727,22.8103131 15.4739435,22.8103131 L15.2353677,22.8103131 C15.1798173,22.8103131 15.1349403,22.765776 15.1349403,22.7107666 C15.1349403,22.6557573 15.1798173,22.6112201 15.2353677,22.6112201 L15.4739435,22.6112201 Z M16.1796403,22.6112201 C16.2350694,22.6112201 16.2799464,22.6557573 16.2799464,22.7107666 C16.2799464,22.765776 16.2350694,22.8103131 16.1796403,22.8103131 L16.0575021,22.8103131 C16.0020729,22.8103131 15.9571959,22.765776 15.9571959,22.7107666 C15.9571959,22.6557573 16.0020729,22.6112201 16.0575021,22.6112201 L16.1796403,22.6112201 Z M16.5338047,21.9371929 C16.5893551,21.9371929 16.6342321,21.9817301 16.6342321,22.0368598 C16.6342321,22.0918692 16.5893551,22.1364063 16.5338047,22.1364063 L16.3272492,22.1364063 C16.2716988,22.1364063 16.2268218,22.0918692 16.2268218,22.0368598 C16.2268218,21.9817301 16.2716988,21.9371929 16.3272492,21.9371929 L16.5338047,21.9371929 Z M17.7357075,3.36966664 C17.8465659,3.36966664 17.9364411,3.45886125 17.9364411,3.56887998 C17.9364411,3.67889871 17.8465659,3.76797296 17.7357075,3.76797296 C17.6614171,3.76797296 17.5965498,3.72797095 17.5618389,3.66847059 L13.2664806,3.66839036 C8.19137791,3.66839036 4.06233071,7.76604635 4.06233071,12.8028338 C4.06233071,17.7511382 8.04776992,21.7930904 13.0002607,21.9333903 L13.2664806,21.9371568 L15.0188665,21.9371568 C15.0742957,21.9371568 15.1191727,21.9816939 15.1191727,22.0368237 C15.1191727,22.0780807 15.0939294,22.1134471 15.0579235,22.1285517 L15.0188665,22.1363702 L13.2664806,22.1363702 C8.08064089,22.1363702 3.86171843,17.9493992 3.86171843,12.8028338 C3.86171843,7.74644073 7.93390706,3.61638366 12.9944521,3.47302567 L13.2664806,3.46917701 L17.5618274,3.46927841 C17.5965355,3.40973153 17.6614089,3.36966664 17.7357075,3.36966664 Z M15.960871,21.9371929 C16.0163002,21.9371929 16.0611771,21.9817301 16.0611771,22.0368598 C16.0611771,22.0918692 16.0163002,22.1364063 15.960871,22.1364063 L15.3587916,22.1364063 C15.3032411,22.1364063 15.2583641,22.0918692 15.2583641,22.0368598 C15.2583641,21.9817301 15.3032411,21.9371929 15.3587916,21.9371929 L15.960871,21.9371929 Z M16.6170697,21.263274 C16.6726201,21.263274 16.7173758,21.3078112 16.7173758,21.3628205 C16.7173758,21.4179503 16.6726201,21.462367 16.6170697,21.462367 L16.3798281,21.462367 C16.3243989,21.462367 16.2795219,21.4179503 16.2795219,21.3628205 C16.2795219,21.3078112 16.3243989,21.263274 16.3798281,21.263274 L16.6170697,21.263274 Z M17.9990142,4.04370589 C18.1097512,4.04370589 18.1996265,4.13278014 18.1996265,4.24279887 C18.1996265,4.35281759 18.1097512,4.44201221 17.9990142,4.44201221 C17.9247237,4.44201221 17.859802,4.40195614 17.8250551,4.34242012 L13.2442119,4.34240554 C8.54340759,4.34240554 4.71916008,8.13769058 4.71916008,12.802894 C4.71916008,17.3831573 8.40560826,21.1249641 12.9886915,21.2595157 L13.2442119,21.263262 L16.0122734,21.263262 C16.0677025,21.263262 16.1125795,21.3077991 16.1125795,21.3628085 C16.1125795,21.4041558 16.0873362,21.439477 16.0513304,21.4545535 L16.0122734,21.462355 L13.2442119,21.462355 C8.43279187,21.462355 4.5184265,17.577755 4.5184265,12.802894 C4.5184265,8.13647593 8.25702045,4.32185822 12.9174188,4.15062431 L13.1772603,4.14487738 L13.1772603,4.14319219 L17.8250436,4.14322794 C17.8597877,4.08371672 17.9247156,4.04370589 17.9990142,4.04370589 Z M17.2334612,21.263274 C17.2890117,21.263274 17.3338887,21.3078112 17.3338887,21.3628205 C17.3338887,21.4179503 17.2890117,21.462367 17.2334612,21.462367 L17.1925868,21.462367 C17.1371576,21.462367 17.0922806,21.4179503 17.0922806,21.3628205 C17.0922806,21.3078112 17.1371576,21.263274 17.1925868,21.263274 L17.2334612,21.263274 Z M16.6611583,4.71761274 C16.7720166,4.71761274 16.8618919,4.80668698 16.8618919,4.91670571 C16.8618919,5.02672444 16.7720166,5.11591906 16.6611583,5.11591906 C16.5868678,5.11591906 16.5220006,5.07586299 16.4872896,5.01632697 L13.2219432,5.01632442 C8.89555857,5.01632442 5.37586816,8.50923852 5.37586816,12.8028578 C5.37586816,17.0137895 8.76148752,20.4547478 12.9732584,20.585535 L13.2219432,20.5893913 L15.0188423,20.5893913 C15.0742714,20.5893913 15.1191484,20.6339284 15.1191484,20.6889378 C15.1191484,20.7301948 15.0939051,20.7655612 15.0578993,20.7806658 L15.0188423,20.7884843 L13.2219432,20.7884843 C8.78494284,20.7884843 5.17525587,17.2061348 5.17525587,12.8028578 C5.17525587,8.4825435 8.65001328,4.95258637 12.9716945,4.82091846 L13.2219432,4.81711108 L16.4872781,4.81713478 C16.5219862,4.75762357 16.5868596,4.71761274 16.6611583,4.71761274 Z M16.750318,20.5893672 C16.8057471,20.5893672 16.8506241,20.6339043 16.8506241,20.6889137 C16.8506241,20.7439231 16.8057471,20.7884602 16.750318,20.7884602 L16.4839669,20.7884602 C16.4285378,20.7884602 16.3836608,20.7439231 16.3836608,20.6889137 C16.3836608,20.6339043 16.4285378,20.5893672 16.4839669,20.5893672 L16.750318,20.5893672 Z M16.078849,20.5893672 C16.1342781,20.5893672 16.1791551,20.6339043 16.1791551,20.6889137 C16.1791551,20.7439231 16.1342781,20.7884602 16.078849,20.7884602 L15.3794956,20.7884602 C15.3240665,20.7884602 15.2791895,20.7439231 15.2791895,20.6889137 C15.2791895,20.6339043 15.3240665,20.5893672 15.3794956,20.5893672 L16.078849,20.5893672 Z M15.235392,19.9154604 C15.2908211,19.9154604 15.3356981,19.9598771 15.3356981,20.0150068 C15.3356981,20.0700162 15.2908211,20.1145533 15.235392,20.1145533 L14.9059706,20.1145533 C14.8504201,20.1145533 14.8055432,20.0700162 14.8055432,20.0150068 C14.8055432,19.9598771 14.8504201,19.9154604 14.9059706,19.9154604 L15.235392,19.9154604 Z M15.9916663,19.9154604 C16.0470955,19.9154604 16.0919725,19.9598771 16.0919725,20.0150068 C16.0919725,20.0700162 16.0470955,20.1145533 15.9916663,20.1145533 L15.9068852,20.1145533 C15.8513348,20.1145533 15.8065791,20.0700162 15.8065791,20.0150068 C15.8065791,19.9598771 15.8513348,19.9154604 15.9068852,19.9154604 L15.9916663,19.9154604 Z M16.4401452,5.39151958 C16.5510035,5.39151958 16.6407574,5.4807142 16.6407574,5.59073293 C16.6407574,5.70063129 16.5510035,5.7898259 16.4401452,5.7898259 C16.3658547,5.7898259 16.300933,5.74976984 16.2661861,5.69027004 L13.1995169,5.69027941 C9.24779444,5.69027941 6.03266114,8.88094293 6.03266114,12.8028578 C6.03266114,16.6446158 9.11790359,19.7848957 12.9585161,19.9114704 L13.1995169,19.9154363 L14.5615942,19.9154363 C14.6170234,19.9154363 14.6619004,19.959853 14.6619004,20.0149828 C14.6619004,20.0562398 14.6366571,20.0916062 14.6006513,20.1067108 L14.5615942,20.1145293 L13.1995169,20.1145293 C9.13705743,20.1145293 5.83204885,16.8344304 5.83204885,12.8028578 C5.83204885,8.8517988 9.00617909,5.62257066 12.9566986,5.49498196 L13.1995169,5.49106607 L16.2661746,5.49113136 C16.3009186,5.43158448 16.3658465,5.39151958 16.4401452,5.39151958 Z M15.6090111,6.06542643 C15.7198694,6.06542643 15.8096234,6.15462104 15.8096234,6.26463977 C15.8096234,6.3746585 15.7198694,6.46373275 15.6090111,6.46373275 C15.5347207,6.46373275 15.4697989,6.42373074 15.435052,6.36423038 L13.1772603,6.36421033 C9.59995755,6.36421033 6.68950264,9.25262327 6.68950264,12.8028338 C6.68950264,16.3530443 9.59995755,19.2413368 13.1772603,19.2413368 C13.2326895,19.2413368 13.2775665,19.2859943 13.2775665,19.3410037 C13.2775665,19.3961334 13.2326895,19.4406706 13.1772603,19.4406706 C9.48934182,19.4406706 6.48876906,16.4628223 6.48876906,12.8028338 C6.48876906,9.22059957 9.36301622,6.29213303 12.942817,6.16913909 L13.1772603,6.16511736 L15.4350405,6.16503821 C15.4697846,6.10549133 15.5347125,6.06542643 15.6090111,6.06542643 Z M14.9424665,19.2414211 C14.9980169,19.2414211 15.0427726,19.2859582 15.0427726,19.3409676 C15.0427726,19.3960973 14.9980169,19.4406344 14.9424665,19.4406344 L14.7680527,19.4406344 C14.7125022,19.4406344 14.6676252,19.3960973 14.6676252,19.3409676 C14.6676252,19.2859582 14.7125022,19.2414211 14.7680527,19.2414211 L14.9424665,19.2414211 Z M14.3573433,19.2414211 C14.4127724,19.2414211 14.4576494,19.2859582 14.4576494,19.3409676 C14.4576494,19.3960973 14.4127724,19.4406344 14.3573433,19.4406344 L13.5308789,19.4406344 C13.4754497,19.4406344 13.4304514,19.3960973 13.4304514,19.3409676 C13.4304514,19.2859582 13.4754497,19.2414211 13.5308789,19.2414211 L14.3573433,19.2414211 Z M15.8694311,19.2414211 C15.9248603,19.2414211 15.9697372,19.2859582 15.9697372,19.3409676 C15.9697372,19.3960973 15.9248603,19.4406344 15.8694311,19.4406344 L15.7959299,19.4406344 C15.7405007,19.4406344 15.6955024,19.3960973 15.6955024,19.3409676 C15.6955024,19.2859582 15.7405007,19.2414211 15.7959299,19.2414211 L15.8694311,19.2414211 Z" id="合并形状" fill="url(#linearGradient-1)"></path>
        </g>
    </g>
</svg>
